<?xml version="1.0" encoding="UTF-8"?>
<svg width="500px" height="500px" viewBox="0 0 500 500" version="1.1" xmlns="http://www.w3.org/2000/svg" xmlns:xlink="http://www.w3.org/1999/xlink">
    <!-- Generator: Sketch 48.2 (47327) - http://www.bohemiancoding.com/sketch -->
    <title>Logo Print Back no bg</title>
    <desc>Created with Sketch.</desc>
    <defs></defs>
    <g id="Page-1" stroke="none" stroke-width="1" fill="none" fill-rule="evenodd">
        <g id="Logo-Print-Back-no-bg" fill-rule="nonzero">
            <g id="blockstack-logo" transform="translate(89.000000, 181.000000)">
                <path d="M0,113.43459 L6.9896631,113.43459 C8.1968649,113.43459 9.3135097,113.537201 10.3396312,113.742425 C11.3657527,113.94765 12.2530327,114.273589 13.0014977,114.720254 C13.7499628,115.166919 14.3354469,115.764474 14.7579675,116.512939 C15.1804881,117.261405 15.3917452,118.178864 15.3917452,119.265346 C15.3917452,120.400115 15.0537338,121.450365 14.3777008,122.416126 C13.7016679,123.381888 12.6634899,124.045839 11.2631359,124.407999 L11.2631359,124.552863 C13.0015064,124.842591 14.3233725,125.452219 15.2287738,126.381764 C16.1341751,127.31131 16.586869,128.572817 16.586869,130.166323 C16.586869,131.349381 16.36354,132.375487 15.9168754,133.244672 C15.4702107,134.113857 14.8424752,134.838167 14.0336501,135.417624 C13.2248249,135.997081 12.2711498,136.425631 11.1725962,136.703288 C10.0740427,136.980944 8.8728949,137.11977 7.5691171,137.11977 L0,137.11977 L0,113.43459 Z M6.5912885,123.249092 C8.2572269,123.249092 9.4523387,122.947296 10.1766598,122.343695 C10.9009808,121.740094 11.2631359,120.882994 11.2631359,119.772368 C11.2631359,118.685886 10.8828731,117.901217 10.122336,117.418336 C9.3617989,116.935456 8.2210103,116.694019 6.6999362,116.694019 L4.201041,116.694019 L4.201041,123.249092 L6.5912885,123.249092 Z M7.1345266,133.860342 C8.8728971,133.860342 10.2007991,133.534402 11.1182724,132.882513 C12.0357458,132.230624 12.4944755,131.228662 12.4944755,129.876596 C12.4944755,127.462192 10.7078438,126.255009 7.1345266,126.255009 L4.201041,126.255009 L4.201041,133.860342 L7.1345266,133.860342 Z M34.7793071,113.43459 L38.9441322,113.43459 L38.9441322,133.570615 L50.062405,133.570615 L50.062405,137.11977 L34.7793071,137.11977 L34.7793071,113.43459 Z M75.099642,137.554361 C73.723432,137.554361 72.461926,137.270672 71.315084,136.703288 C70.168242,136.135903 69.190423,135.315018 68.381598,134.240608 C67.572773,133.166199 66.939002,131.868476 66.480265,130.347402 C66.021528,128.826328 65.792164,127.100055 65.792164,125.168533 C65.792164,123.261154 66.021528,121.552989 66.480265,120.043987 C66.939002,118.534985 67.572773,117.261406 68.381598,116.223213 C69.190423,115.185019 70.168242,114.388278 71.315084,113.832965 C72.461926,113.277652 73.723432,113 75.099642,113 C76.475852,113 77.737359,113.277652 78.884201,113.832965 C80.031043,114.388278 81.008861,115.185019 81.817687,116.223213 C82.626512,117.261406 83.260283,118.534985 83.71902,120.043987 C84.177756,121.552989 84.407121,123.261154 84.407121,125.168533 C84.407121,127.100055 84.177756,128.826328 83.71902,130.347402 C83.260283,131.868476 82.626512,133.166199 81.817687,134.240608 C81.008861,135.315018 80.031043,136.135903 78.884201,136.703288 C77.737359,137.270672 76.475852,137.554361 75.099642,137.554361 Z M75.099642,133.896558 C75.848107,133.896558 76.530166,133.691336 77.145839,133.280888 C77.761512,132.870439 78.286637,132.284955 78.72123,131.524418 C79.155822,130.763881 79.493834,129.846421 79.735274,128.772012 C79.976714,127.697602 80.097433,126.496455 80.097433,125.168533 C80.097433,122.512689 79.644739,120.430297 78.739337,118.921295 C77.833936,117.412293 76.620717,116.657803 75.099642,116.657803 C73.578568,116.657803 72.365349,117.412293 71.459947,118.921295 C70.554546,120.430297 70.101852,122.512689 70.101852,125.168533 C70.101852,126.496455 70.216535,127.697602 70.445903,128.772012 C70.675271,129.846421 71.007247,130.763881 71.441839,131.524418 C71.876432,132.284955 72.401557,132.870439 73.01723,133.280888 C73.632903,133.691336 74.327033,133.896558 75.099642,133.896558 Z M100.209312,125.349612 C100.209312,123.418089 100.486964,121.685781 101.042277,120.152635 C101.59759,118.619488 102.364151,117.321766 103.341985,116.259428 C104.319818,115.197091 105.478714,114.388278 106.818708,113.832965 C108.158702,113.277652 109.613359,113 111.182721,113 C112.631363,113 113.923049,113.301796 115.057819,113.905397 C116.192589,114.508998 117.146264,115.197092 117.918873,115.969701 L115.564841,118.577244 C114.985384,117.997787 114.339541,117.533022 113.627292,117.182933 C112.915043,116.832845 112.100194,116.657803 111.182721,116.657803 C110.192815,116.657803 109.287428,116.856988 108.46653,117.255365 C107.645633,117.653741 106.945467,118.221118 106.36601,118.957511 C105.786553,119.693904 105.333859,120.593256 105.007915,121.655593 C104.68197,122.717931 104.519001,123.913043 104.519001,125.240964 C104.519001,126.59303 104.68197,127.80625 105.007915,128.880659 C105.333859,129.955069 105.792589,130.860457 106.384118,131.59685 C106.975647,132.333243 107.687885,132.900619 108.520854,133.298996 C109.353824,133.697372 110.277319,133.896558 111.291368,133.896558 C112.25713,133.896558 113.120266,133.691336 113.880803,133.280888 C114.64134,132.870439 115.359615,132.290991 116.035648,131.542526 L118.353463,134.113853 C117.387702,135.224478 116.301237,136.075543 115.094035,136.667072 C113.886833,137.258601 112.534788,137.554361 111.037857,137.554361 C109.516783,137.554361 108.098342,137.28878 106.782492,136.757611 C105.466643,136.226443 104.319818,135.441773 103.341985,134.40358 C102.364151,133.365386 101.59759,132.085772 101.042277,130.564697 C100.486964,129.043623 100.209312,127.305279 100.209312,125.349612 Z M134.843755,113.43459 L139.081012,113.43459 L139.081012,124.190704 L139.18966,124.190704 L147.627958,113.43459 L152.299805,113.43459 L145.020415,122.669638 L153.096555,137.11977 L148.424707,137.11977 L142.52152,125.965282 L139.081012,130.202539 L139.081012,137.11977 L134.843755,137.11977 L134.843755,113.43459 Z M170.202516,131.216583 C171.095846,132.013336 172.103844,132.65918 173.226542,133.154132 C174.349239,133.649085 175.490028,133.896558 176.648942,133.896558 C178.097584,133.896558 179.196121,133.618905 179.944586,133.063593 C180.693051,132.50828 181.067278,131.771898 181.067278,130.854424 C181.067278,130.371544 180.970703,129.961101 180.777551,129.623085 C180.584399,129.285068 180.312782,128.989308 179.962694,128.735796 C179.612605,128.482284 179.190091,128.246883 178.695138,128.029587 C178.200186,127.81229 177.662989,127.594997 177.083532,127.377701 L173.860319,125.965282 C173.232575,125.723842 172.616911,125.422046 172.01331,125.059885 C171.409709,124.697725 170.866477,124.263138 170.383596,123.756114 C169.900715,123.249089 169.514416,122.657569 169.224688,121.981536 C168.93496,121.305503 168.790097,120.532906 168.790097,119.66372 C168.790097,118.722103 168.995319,117.846895 169.405767,117.03807 C169.816216,116.229244 170.383592,115.523042 171.107913,114.919441 C171.832234,114.31584 172.695371,113.845039 173.697348,113.507022 C174.699325,113.169006 175.803898,113 177.0111,113 C178.459742,113 179.841968,113.271616 181.157817,113.814857 C182.473667,114.358098 183.626528,115.088444 184.616433,116.005917 L182.443481,118.685892 C181.646728,118.058147 180.813771,117.563202 179.944586,117.201041 C179.075401,116.838881 178.097582,116.657803 177.0111,116.657803 C175.779754,116.657803 174.807972,116.905276 174.095723,117.400228 C173.383474,117.895181 173.027354,118.57724 173.027354,119.446425 C173.027354,119.905162 173.136001,120.297496 173.353297,120.623441 C173.570594,120.949385 173.866354,121.239109 174.240586,121.492622 C174.614819,121.746134 175.049405,121.969463 175.544357,122.162615 C176.03931,122.355768 176.552363,122.560989 177.083532,122.778285 L180.198097,124.118272 C180.946562,124.408001 181.634657,124.746012 182.262402,125.132317 C182.890146,125.518621 183.433379,125.965279 183.892116,126.472304 C184.350852,126.979329 184.706972,127.564813 184.960484,128.228774 C185.213996,128.892735 185.340751,129.659296 185.340751,130.528482 C185.340751,131.494243 185.141565,132.399631 184.743189,133.244672 C184.344812,134.089713 183.7714,134.832131 183.022935,135.471948 C182.27447,136.111765 181.35701,136.618782 180.270529,136.993015 C179.184047,137.367247 177.95272,137.554361 176.57651,137.554361 C174.910571,137.554361 173.317089,137.252565 171.796015,136.648964 C170.274941,136.045363 168.922895,135.188263 167.739837,134.077637 L170.202516,131.216583 Z M208.205036,116.983746 L200.744567,116.983746 L200.744567,113.43459 L219.866547,113.43459 L219.866547,116.983746 L212.406077,116.983746 L212.406077,137.11977 L208.205036,137.11977 L208.205036,116.983746 Z M247.040521,127.413917 L246.207556,124.516647 C245.869539,123.261157 245.519456,121.969471 245.157295,120.641549 C244.795135,119.313627 244.445052,117.997797 244.107035,116.694019 L243.962172,116.694019 C243.624155,118.021941 243.280108,119.343807 242.930019,120.659657 C242.579931,121.975507 242.223812,123.261157 241.861651,124.516647 L241.028686,127.413917 L247.040521,127.413917 Z M247.982133,130.709561 L240.087073,130.709561 L238.240064,137.11977 L233.966591,137.11977 L241.644356,113.43459 L246.569714,113.43459 L254.247479,137.11977 L249.792927,137.11977 L247.982133,130.709561 Z M269.216705,125.349612 C269.216705,123.418089 269.494357,121.685781 270.04967,120.152635 C270.604982,118.619488 271.371544,117.321766 272.349377,116.259428 C273.327211,115.197091 274.486107,114.388278 275.826101,113.832965 C277.166095,113.277652 278.620751,113 280.190114,113 C281.638756,113 282.930442,113.301796 284.065212,113.905397 C285.199981,114.508998 286.153656,115.197092 286.926266,115.969701 L284.572234,118.577244 C283.992777,117.997787 283.346934,117.533022 282.634685,117.182933 C281.922436,116.832845 281.107587,116.657803 280.190114,116.657803 C279.200208,116.657803 278.29482,116.856988 277.473923,117.255365 C276.653026,117.653741 275.95286,118.221118 275.373403,118.957511 C274.793946,119.693904 274.341252,120.593256 274.015308,121.655593 C273.689363,122.717931 273.526393,123.913043 273.526393,125.240964 C273.526393,126.59303 273.689363,127.80625 274.015308,128.880659 C274.341252,129.955069 274.799982,130.860457 275.391511,131.59685 C275.983039,132.333243 276.695278,132.900619 277.528247,133.298996 C278.361216,133.697372 279.284712,133.896558 280.298761,133.896558 C281.264523,133.896558 282.127659,133.691336 282.888196,133.280888 C283.648733,132.870439 284.367007,132.290991 285.04304,131.542526 L287.360856,134.113853 C286.395095,135.224478 285.308629,136.075543 284.101428,136.667072 C282.894226,137.258601 281.54218,137.554361 280.04525,137.554361 C278.524176,137.554361 277.105735,137.28878 275.789885,136.757611 C274.474035,136.226443 273.327211,135.441773 272.349377,134.40358 C271.371544,133.365386 270.604982,132.085772 270.04967,130.564697 C269.494357,129.043623 269.216705,127.305279 269.216705,125.349612 Z M303.851148,113.43459 L308.088405,113.43459 L308.088405,124.190704 L308.197053,124.190704 L316.635351,113.43459 L321.307198,113.43459 L314.027808,122.669638 L322.103947,137.11977 L317.4321,137.11977 L311.528913,125.965282 L308.088405,130.202539 L308.088405,137.11977 L303.851148,137.11977 L303.851148,113.43459 Z" id="BLOCKSTACK" fill="#FFFFFF"></path>
                <path d="M143.586068,22.0081772 C137.751928,22.0081772 133.022423,17.3885773 133.022423,11.6900121 C133.022423,5.9914468 137.751928,1.371847 143.586068,1.371847 C149.420208,1.371847 154.149713,5.9914468 154.149713,11.6900121 C154.149713,17.3885773 149.420208,22.0081772 143.586068,22.0081772 Z M185.840649,22.0081772 C180.006509,22.0081772 175.277004,17.3885773 175.277004,11.6900121 C175.277004,5.9914468 180.006509,1.371847 185.840649,1.371847 C191.674789,1.371847 196.404294,5.9914468 196.404294,11.6900121 C196.404294,17.3885773 191.674789,22.0081772 185.840649,22.0081772 Z M185.840649,63.280838 C180.006509,63.280838 175.277004,58.6612379 175.277004,52.9626726 C175.277004,47.2641074 180.006509,42.6445075 185.840649,42.6445075 C191.674789,42.6445075 196.404294,47.2641074 196.404294,52.9626726 C196.404294,58.6612379 191.674789,63.280838 185.840649,63.280838 Z M143.586068,63.280838 C137.751928,63.280838 133.022423,58.6612379 133.022423,52.9626726 C133.022423,47.2641074 137.751928,42.6445075 143.586068,42.6445075 C149.420208,42.6445075 154.149713,47.2641074 154.149713,52.9626726 C154.149713,58.6612379 149.420208,63.280838 143.586068,63.280838 Z" id="4dots-electric-blue" fill="#2C96FF"></path>
                <path d="M136.563645,24.7518711 C130.729505,24.7518711 126,20.1322712 126,14.433706 C126,8.7351407 130.729505,4.1155409 136.563645,4.1155409 C142.397785,4.1155409 147.12729,8.7351407 147.12729,14.433706 C147.12729,20.1322712 142.397785,24.7518711 136.563645,24.7518711 Z M178.818226,24.7518711 C172.984086,24.7518711 168.254581,20.1322712 168.254581,14.433706 C168.254581,8.7351407 172.984086,4.1155409 178.818226,4.1155409 C184.652366,4.1155409 189.381871,8.7351407 189.381871,14.433706 C189.381871,20.1322712 184.652366,24.7518711 178.818226,24.7518711 Z M178.818226,66.024532 C172.984086,66.024532 168.254581,61.404932 168.254581,55.7063665 C168.254581,50.0078013 172.984086,45.3882014 178.818226,45.3882014 C184.652366,45.3882014 189.381871,50.0078013 189.381871,55.7063665 C189.381871,61.404932 184.652366,66.024532 178.818226,66.024532 Z M136.563645,66.024532 C130.729505,66.024532 126,61.404932 126,55.7063665 C126,50.0078013 130.729505,45.3882014 136.563645,45.3882014 C142.397785,45.3882014 147.12729,50.0078013 147.12729,55.7063665 C147.12729,61.404932 142.397785,66.024532 136.563645,66.024532 Z" id="4dots-magenta" fill="#E91E63"></path>
                <path d="M140.074857,20.6363303 C134.240717,20.6363303 129.511212,16.0167304 129.511212,10.3181651 C129.511212,4.6195999 134.240717,0 140.074857,0 C145.908997,0 150.638502,4.6195999 150.638502,10.3181651 C150.638502,16.0167304 145.908997,20.6363303 140.074857,20.6363303 Z M182.329437,20.6363303 C176.495297,20.6363303 171.765792,16.0167304 171.765792,10.3181651 C171.765792,4.6195999 176.495297,0 182.329437,0 C188.163577,0 192.893082,4.6195999 192.893082,10.3181651 C192.893082,16.0167304 188.163577,20.6363303 182.329437,20.6363303 Z M182.329437,61.908991 C176.495297,61.908991 171.765792,57.2893909 171.765792,51.5908257 C171.765792,45.8922604 176.495297,41.2726605 182.329437,41.2726605 C188.163577,41.2726605 192.893082,45.8922604 192.893082,51.5908257 C192.893082,57.2893909 188.163577,61.908991 182.329437,61.908991 Z M140.074857,61.908991 C134.240717,61.908991 129.511212,57.2893909 129.511212,51.5908257 C129.511212,45.8922604 134.240717,41.2726605 140.074857,41.2726605 C145.908997,41.2726605 150.638502,45.8922604 150.638502,51.5908257 C150.638502,57.2893909 145.908997,61.908991 140.074857,61.908991 Z" id="4dots-rev" fill="#FFFFFF"></path>
            </g>
        </g>
    </g>
</svg>