<?xml version="1.0" encoding="UTF-8"?>
<svg width="520px" height="114px" viewBox="0 0 520 114" version="1.1" xmlns="http://www.w3.org/2000/svg" xmlns:xlink="http://www.w3.org/1999/xlink">
    <!-- Generator: Sketch 45.2 (43514) - http://www.bohemiancoding.com/sketch -->
    <title>logo/BW/logo/blockstack-logo-bw-landscape</title>
    <desc>Created with Sketch.</desc>
    <defs></defs>
    <g id="Symbols" stroke="none" stroke-width="1" fill="none" fill-rule="evenodd">
        <g id="logo/BW/logo/blockstack-logo-bw-landscape" fill="#000000">
            <g id="blockstack-logo-bw-landscape">
                <g id="BLOCKSTACK" transform="translate(143.000000, 46.000000)">
                    <path d="M11.8121293,16.9328056 C11.8121293,18.0441308 11.467074,18.8346945 10.7595524,19.3482369 C9.99821476,19.9038996 8.84433718,20.1841609 7.33432453,20.1841609 L5.15161233,20.1841609 L5.15161233,14.032992 L7.33432453,14.032992 C11.3483623,14.032992 11.8121293,15.6870197 11.8121293,16.9328056 M9.83360123,9.17944915 C9.26061949,9.66869145 8.2476131,9.91493261 6.82149005,9.91493261 L5.15161233,9.91493261 L5.15161233,4.78112847 L6.92279068,4.78112847 C8.24128181,4.78112847 9.22263175,4.98524943 9.84309816,5.38863133 C10.3860063,5.74017298 10.6487548,6.31689569 10.6487548,7.15605964 C10.6487548,8.05030384 10.3812578,8.71126695 9.83360123,9.17944915 M12.9612584,11.6013605 C13.6640316,11.2076987 14.2338477,10.6909163 14.6675411,10.0607333 C15.3734799,9.02554842 15.7327806,7.88344306 15.7327806,6.66519733 C15.7327806,5.51175191 15.5048542,4.51544722 15.0569154,3.70544342 C14.6089767,2.89057959 13.9790133,2.2328565 13.1844364,1.74847422 C12.4199332,1.28191203 11.5098102,0.938470411 10.4809756,0.727869421 C9.47588335,0.522128454 8.37265608,0.418447967 7.1982018,0.418447967 L0.589917939,0.418447967 C0.263856508,0.418447967 -0.000474846744,0.688989239 -0.000474846744,1.02271081 L-0.000474846744,23.9409585 C-0.000474846744,24.2746801 0.263856508,24.5452214 0.589917939,24.5452214 L7.74585837,24.5452214 C9.01844765,24.5452214 10.2134786,24.4042807 11.297712,24.1240194 C12.4025221,23.8388981 13.3791236,23.3869159 14.2006085,22.7858931 C15.0395044,22.1719102 15.6995413,21.3926866 16.1633083,20.4676622 C16.6270753,19.5426379 16.861333,18.4491327 16.861333,17.2130669 C16.861333,15.5152989 16.3738237,14.1415325 15.408302,13.1274077 C14.7799215,12.4680646 13.9600194,11.9577622 12.9612584,11.6013605" id="Fill-13"></path>
                    <path d="M47.9202672,19.9022796 L37.997553,19.9022796 L37.997553,1.02271081 C37.997553,0.688989239 37.7332217,0.418447967 37.4071603,0.418447967 L33.4706807,0.418447967 C33.1446193,0.418447967 32.880288,0.688989239 32.880288,1.02271081 L32.880288,23.9409585 C32.880288,24.2746801 33.1446193,24.5452214 33.4706807,24.5452214 L47.9202672,24.5452214 C48.2463286,24.5452214 48.51066,24.2746801 48.51066,23.9409585 L48.51066,20.5065424 C48.51066,20.1728208 48.2463286,19.9022796 47.9202672,19.9022796" id="Fill-9"></path>
                    <path d="M75.72476,12.3765342 C75.72476,13.61584 75.6155452,14.7449853 75.3971157,15.7299499 C75.1818519,16.7100545 74.8811156,17.5492185 74.502821,18.2263817 C74.1387719,18.8792447 73.70033,19.3814471 73.1969925,19.7232687 C72.2045628,20.4036719 70.9066484,20.3777518 69.9506236,19.7232687 C69.447286,19.3814471 69.0088442,18.8792447 68.644795,18.2280017 C68.2649176,17.5443585 67.9705127,16.7084345 67.7694942,15.73643 C67.5621445,14.7449853 67.4560954,13.61422 67.4560954,12.3765342 C67.4560954,9.93032268 67.8597151,8.00089361 68.6558748,6.64332723 C69.4045498,5.36676123 70.3637403,4.74629831 71.5920105,4.74629831 C72.8171151,4.74629831 73.7778883,5.36676123 74.5249806,6.64332723 C75.3211403,7.9992736 75.72476,9.92708266 75.72476,12.3765342 M78.4076441,3.34985175 C77.5924905,2.2774067 76.5873982,1.43986277 75.4271894,0.864760065 C73.1099373,-0.285445342 70.0693353,-0.282205327 67.7552488,0.864760065 C66.5918743,1.44148278 65.5899476,2.2774067 64.7747941,3.34985175 C63.9675546,4.40933673 63.3296771,5.71992289 62.8785727,7.24273004 C62.4290512,8.75095713 62.2011247,10.4778853 62.2011247,12.3765342 C62.2011247,14.2994832 62.4290512,16.0442314 62.8769899,17.5621786 C63.3280943,19.0947058 63.964389,20.426352 64.7684628,21.5198572 C65.5836164,22.6279424 66.5871258,23.4897864 67.7520832,24.0810892 C68.9107092,24.669152 70.2038752,24.9656134 71.5920105,24.9656134 C72.9801458,24.9656134 74.2701461,24.669152 75.430355,24.0810892 C76.5937295,23.4897864 77.5988218,22.6279424 78.4139754,21.5198572 C79.2164664,20.426352 79.852761,19.0947058 80.3070311,17.5621786 C80.753387,16.0426114 80.9797306,14.2978632 80.9797306,12.3765342 C80.9797306,10.4811253 80.753387,8.75419715 80.3054483,7.24273004 C79.8511782,5.71992289 79.2148836,4.40933673 78.4076441,3.34985175" id="Fill-11"></path>
                    <path d="M110.732361,18.1398733 C110.619981,18.0135127 110.460116,17.9406123 110.29392,17.9406123 C110.12614,17.9406123 109.967858,18.0135127 109.855478,18.1398733 C109.263502,18.8089364 108.631956,19.3321989 107.976667,19.6950806 C106.674005,20.415984 104.807857,20.3673837 103.443464,19.6983206 C102.737525,19.354879 102.128138,18.8559166 101.629549,18.2192536 C101.11988,17.5696306 100.716261,16.7547668 100.431353,15.7941022 C100.143279,14.8188577 99.9960765,13.6945724 99.9960765,12.4471665 C99.9960765,11.2240608 100.143279,10.1175956 100.431353,9.15531103 C100.716261,8.20436656 101.115132,7.39274275 101.613721,6.74149969 C102.104396,6.10321669 102.704286,5.60749436 103.392814,5.26405274 C104.719219,4.60470964 106.526802,4.5739295 107.755072,5.19277241 C108.367625,5.50057386 108.931109,5.9152958 109.431281,6.42721821 C109.545245,6.54385876 109.709858,6.595699 109.863392,6.60379904 C110.02484,6.59893902 110.176791,6.52765868 110.287588,6.4045381 L112.513037,3.88056624 C112.723552,3.64242512 112.714055,3.2763034 112.490877,3.04950233 C111.724791,2.26379864 110.767183,1.55747532 109.644962,0.945112443 C107.26598,-0.352513657 103.932556,-0.245593154 101.352555,0.849531993 C100.010322,1.42139468 98.8342848,2.26055863 97.8576833,3.34596373 C96.8842475,4.42974882 96.1134129,5.7646351 95.5625907,7.31660239 C95.016517,8.86046965 94.739523,10.6230379 94.739523,12.552467 C94.739523,14.5061962 95.016517,16.2736245 95.5625907,17.8061517 C96.1149958,19.3483989 96.8874131,20.6687052 97.8624318,21.7281901 C98.8406161,22.7925351 100.007156,23.607399 101.324065,24.1517215 C102.631476,24.6928041 104.059182,24.9665854 105.567612,24.9665854 C107.066544,24.9665854 108.445183,24.6555439 109.662373,24.046421 C110.870067,23.4405382 111.968546,22.560874 112.929319,21.4301087 C113.125589,21.2000677 113.122423,20.856626 112.922988,20.628205 L110.732361,18.1398733 Z" id="Fill-29"></path>
                    <path d="M138.403897,10.0161831 L145.040672,1.39612256 C145.181543,1.21468171 145.208451,0.966820545 145.108733,0.757839562 C145.010598,0.550478588 144.803248,0.417637963 144.576905,0.417637963 L140.16083,0.417637963 C139.980388,0.417637963 139.809443,0.503498367 139.69548,0.649299052 L132.670914,9.81692214 L132.670914,1.0219008 C132.670914,0.688179235 132.406583,0.417637963 132.080521,0.417637963 L128.07598,0.417637963 C127.749919,0.417637963 127.485588,0.688179235 127.485588,1.0219008 L127.485588,23.9417685 C127.485588,24.2754901 127.749919,24.5460314 128.07598,24.5460314 L132.080521,24.5460314 C132.406583,24.5460314 132.670914,24.2754901 132.670914,23.9417685 L132.670914,17.4633581 L135.228755,14.2379229 L140.391922,24.2252699 C140.494806,24.4229108 140.694241,24.5460314 140.914254,24.5460314 L145.331911,24.5460314 C145.542426,24.5460314 145.735531,24.4310108 145.839997,24.24633 C145.947629,24.0616491 145.950795,23.833228 145.846328,23.6469272 L138.403897,10.0161831 Z" id="Fill-27"></path>
                    <path d="M174.884631,13.2323842 C174.414533,12.7042617 173.854214,12.2312195 173.214754,11.8278376 C172.592704,11.4357958 171.902594,11.0891141 171.187158,10.8056128 L168.233611,9.50312667 C167.728691,9.29252568 167.241182,9.09326474 166.7695,8.90534386 C166.345304,8.73686307 165.970175,8.54084215 165.652028,8.32052111 C165.360788,8.11802016 165.139193,7.89607912 164.97458,7.64335793 C164.832126,7.42627691 164.764064,7.16383567 164.764064,6.84145416 C164.764064,6.19507112 165.006236,5.7236489 165.522236,5.35590718 C166.09047,4.95252528 166.90404,4.74678431 167.940789,4.74678431 C168.884151,4.74678431 169.742041,4.90716507 170.487551,5.22630657 C171.256802,5.5535481 172.005477,6.00877024 172.712999,6.57901292 C172.964668,6.78313388 173.333465,6.74263369 173.536067,6.48505248 L175.59057,3.89142029 C175.785257,3.64355913 175.761515,3.28229743 175.533589,3.06845642 C174.54749,2.13371203 173.388864,1.3820285 172.086201,0.832845915 C169.683477,-0.18289886 166.821734,-0.241219134 164.620028,0.520184445 C163.607021,0.868486082 162.719058,1.36582842 161.983045,1.99439137 C161.239119,2.62943436 160.647143,3.3827379 160.222947,4.23486191 C159.795585,5.09832596 159.578738,6.04603042 159.578738,7.05043514 C159.578738,7.97221947 159.733855,8.8065234 160.036174,9.53228681 C160.338493,10.2483302 160.743695,10.8866132 161.247033,11.4260757 C161.736125,11.9525782 162.296444,12.4110403 162.913745,12.7917421 C163.510469,13.1562438 164.129353,13.4689053 164.726077,13.7021864 L167.801501,15.0824329 C168.33966,15.2881739 168.836667,15.4922948 169.295685,15.6980358 C169.721464,15.8908167 170.088679,16.0997977 170.384667,16.3168787 C170.647416,16.5112796 170.850017,16.7380807 170.989305,16.9859418 C171.119097,17.2208429 171.185575,17.5205444 171.185575,17.878566 C171.185575,18.5703093 170.916495,19.1113918 170.362508,19.5309738 C169.762618,19.987816 168.831918,20.217857 167.597317,20.217857 C166.593807,20.217857 165.583966,19.994296 164.601034,19.5504139 C163.602273,19.1000518 162.69215,18.503889 161.897573,17.7797456 C161.780444,17.6695851 161.620579,17.5983047 161.465462,17.6274649 C161.308763,17.6388049 161.159978,17.7133253 161.058677,17.8364458 L158.728762,20.6050389 C158.521413,20.84966 158.540406,21.2190217 158.771498,21.4393428 C159.939621,22.560388 161.292935,23.4384322 162.791868,24.047555 C164.297132,24.6582979 165.889451,24.9660994 167.530838,24.9660994 C168.892065,24.9660994 170.131415,24.7733184 171.217232,24.3909966 C172.309379,24.0038148 173.249576,23.4708323 174.007748,22.8066292 C174.778582,22.132706 175.376889,21.3405223 175.783675,20.4495181 C176.198374,19.5536539 176.407307,18.5832694 176.407307,17.5642846 C176.407307,16.6538403 176.272767,15.8308764 176.008435,15.1229331 C175.744104,14.4133698 175.367392,13.7783268 174.884631,13.2323842" id="Fill-25"></path>
                    <path d="M208.457721,0.417961965 L190.378722,0.417961965 C190.052661,0.417961965 189.78833,0.688503236 189.78833,1.0222248 L189.78833,4.45664095 C189.78833,4.79036252 190.052661,5.06090379 190.378722,5.06090379 L196.841387,5.06090379 L196.841387,23.9420925 C196.841387,24.2758141 197.105718,24.5463554 197.431779,24.5463554 L201.404664,24.5463554 C201.730725,24.5463554 201.995057,24.2758141 201.995057,23.9420925 L201.995057,5.06090379 L208.457721,5.06090379 C208.783782,5.06090379 209.048113,4.79036252 209.048113,4.45664095 L209.048113,1.0222248 C209.048113,0.688503236 208.783782,0.417961965 208.457721,0.417961965" id="Fill-20"></path>
                    <path d="M231.312886,6.30782365 C231.472751,6.92180654 231.634199,7.53740943 231.798812,8.15625234 C232.140702,9.44091838 232.471512,10.6899442 232.794408,11.91467 L233.365807,13.9461596 L229.248885,13.9461596 L229.820284,11.91467 C230.163757,10.6964243 230.500898,9.4457784 230.833291,8.1692124 C230.994739,7.5519895 231.153021,6.92990657 231.312886,6.30782365 L231.312886,6.30782365 Z M234.26485,0.835437927 C234.185709,0.587576762 233.960948,0.417475962 233.704531,0.417475962 L229.046284,0.417475962 C228.789867,0.417475962 228.565106,0.587576762 228.485965,0.835437927 L221.227141,23.7553057 C221.168577,23.9383665 221.19865,24.1408675 221.311031,24.2963882 C221.421828,24.4535289 221.599104,24.5458694 221.78746,24.5458694 L225.828406,24.5458694 C226.091155,24.5458694 226.323829,24.3660485 226.396639,24.1084673 L228.019032,18.3444802 L234.592494,18.3444802 L236.181648,24.1052273 C236.254458,24.3644285 236.487133,24.5458694 236.751464,24.5458694 L240.963355,24.5458694 C241.15171,24.5458694 241.328987,24.4535289 241.439784,24.2963882 C241.552165,24.1408675 241.582238,23.9383665 241.523674,23.7553057 L234.26485,0.835437927 Z" id="Fill-18"></path>
                    <path d="M270.517025,18.1398733 C270.404644,18.0135127 270.244779,17.9406123 270.078583,17.9406123 C269.910804,17.9406123 269.752521,18.0135127 269.640141,18.1398733 C269.048165,18.8089364 268.416619,19.3321989 267.761331,19.6950806 C266.458668,20.415984 264.594103,20.3673837 263.228127,19.6983206 C262.522188,19.354879 261.912802,18.8559166 261.414212,18.2192536 C260.904544,17.5696306 260.500924,16.7547668 260.216016,15.7941022 C259.927942,14.8188577 259.78074,13.6945724 259.78074,12.4471665 C259.78074,11.2240608 259.927942,10.1175956 260.216016,9.15531103 C260.500924,8.20436656 260.899795,7.39274275 261.398384,6.74149969 C261.889059,6.10321669 262.488949,5.60749436 263.177477,5.26405274 C264.503882,4.60470964 266.311465,4.5739295 267.539735,5.19277241 C268.152288,5.50057386 268.715773,5.9152958 269.215944,6.42721821 C269.329908,6.54385876 269.473945,6.595699 269.648055,6.60379904 C269.809503,6.59893902 269.961454,6.52765868 270.072251,6.4045381 L272.2977,3.88056624 C272.508215,3.64242512 272.498718,3.2763034 272.27554,3.04950233 C271.509454,2.26379864 270.551847,1.55747532 269.429625,0.945112443 C267.050643,-0.352513657 263.717219,-0.245593154 261.137219,0.849531993 C259.794985,1.42139468 258.618948,2.26055863 257.642346,3.34596373 C256.668911,4.42974882 255.898076,5.7646351 255.347254,7.31660239 C254.80118,8.86046965 254.524186,10.6230379 254.524186,12.552467 C254.524186,14.5061962 254.80118,16.2736245 255.347254,17.8061517 C255.899659,19.3483989 256.672076,20.6687052 257.647095,21.7281901 C258.625279,22.7925351 259.791819,23.607399 261.108728,24.1517215 C262.416139,24.6928041 263.843845,24.9665854 265.352275,24.9665854 C266.851208,24.9665854 268.229846,24.6555439 269.447037,24.046421 C270.65473,23.4405382 271.753209,22.560874 272.713982,21.4301087 C272.910252,21.2000677 272.907086,20.856626 272.707651,20.628205 L270.517025,18.1398733 Z" id="Fill-22"></path>
                    <path d="M305.631308,23.6469272 L298.188877,10.0161831 L304.825651,1.39612256 C304.966523,1.21468171 304.993431,0.966820545 304.893713,0.757839562 C304.795578,0.550478588 304.588228,0.417637963 304.361885,0.417637963 L299.94581,0.417637963 C299.765368,0.417637963 299.594423,0.503498367 299.48046,0.649299052 L292.455894,9.81692214 L292.455894,1.0219008 C292.455894,0.688179235 292.191562,0.417637963 291.865501,0.417637963 L287.859377,0.417637963 C287.533316,0.417637963 287.268985,0.688179235 287.268985,1.0219008 L287.268985,23.9417685 C287.268985,24.2754901 287.533316,24.5460314 287.859377,24.5460314 L291.865501,24.5460314 C292.191562,24.5460314 292.455894,24.2754901 292.455894,23.9417685 L292.455894,17.4633581 L295.013735,14.2379229 L300.176902,24.2236499 C300.279785,24.4229108 300.479221,24.5460314 300.699233,24.5460314 L305.116891,24.5460314 C305.327406,24.5460314 305.520511,24.4310108 305.624977,24.24633 C305.731026,24.0616491 305.734192,23.833228 305.631308,23.6469272" id="Fill-16"></path>
                </g>
                <g id="4dots" transform="translate(54.000000, 34.000000)">
                    <path d="M7.82111378,43.8267708 C11.8692148,43.8267708 15.1511137,40.544796 15.1511137,36.4967709 C15.1511137,32.4487458 11.8692148,29.166771 7.82111378,29.166771 C3.77301277,29.166771 0.491113854,32.4487458 0.491113854,36.4967709 C0.491113854,40.544796 3.77301277,43.8267708 7.82111378,43.8267708" id="Fill-18"></path>
                    <path d="M7.82111378,14.7093356 C11.8692148,14.7093356 15.1511137,11.427074 15.1511137,7.37869508 C15.1511137,3.3303162 11.8692148,0.0493357199 7.82111378,0.0493357199 C3.77301277,0.0493357199 0.491113854,3.3303162 0.491113854,7.37869508 C0.491113854,11.427074 3.77301277,14.7093356 7.82111378,14.7093356" id="Fill-34"></path>
                    <path d="M37.1316705,14.7093356 C41.1794189,14.7093356 44.4623089,11.427074 44.4623089,7.37869508 C44.4623089,3.3303162 41.1794189,0.0493357199 37.1316705,0.0493357199 C33.0839221,0.0493357199 29.8023091,3.3303162 29.8023091,7.37869508 C29.8023091,11.427074 33.0839221,14.7093356 37.1316705,14.7093356" id="Fill-50"></path>
                    <path d="M37.1316705,43.8267708 C41.1794189,43.8267708 44.4623089,40.544796 44.4623089,36.4967709 C44.4623089,32.4487458 41.1794189,29.166771 37.1316705,29.166771 C33.0839221,29.166771 29.8023091,32.4487458 29.8023091,36.4967709 C29.8023091,40.544796 33.0839221,43.8267708 37.1316705,43.8267708" id="Fill-64"></path>
                </g>
            </g>
        </g>
    </g>
</svg>