<?xml version="1.0" encoding="UTF-8"?>
<svg width="71px" height="11px" viewBox="0 0 71 11" version="1.1" xmlns="http://www.w3.org/2000/svg" xmlns:xlink="http://www.w3.org/1999/xlink">
    <!-- Generator: Sketch 47.1 (45422) - http://www.bohemiancoding.com/sketch -->
    <title>stacks-logo</title>
    <desc>Created with Sketch.</desc>
    <defs></defs>
    <g id="Page-1" stroke="none" stroke-width="1" fill="none" fill-rule="evenodd">
        <path d="M6.195,1.953 C6.143666,2.0556672 6.084167,2.1279998 6.0165,2.17 C5.948833,2.2120002 5.868334,2.233 5.775,2.233 C5.681666,2.233 5.576667,2.1968337 5.46,2.1245 C5.343333,2.0521663 5.205667,1.9716671 5.047,1.883 C4.888333,1.7943329 4.702834,1.7138337 4.4905,1.6415 C4.278166,1.5691663 4.027335,1.533 3.738,1.533 C3.476665,1.533 3.249168,1.5644997 3.0555,1.6275 C2.861832,1.6905003 2.698501,1.7779994 2.5655,1.89 C2.432499,2.0020006 2.333334,2.1361659 2.268,2.2925 C2.202666,2.4488341 2.17,2.6203324 2.17,2.807 C2.17,3.0450012 2.236499,3.2433325 2.3695,3.402 C2.502501,3.5606675 2.678666,3.6959994 2.898,3.808 C3.117334,3.9200006 3.366999,4.0203329 3.647,4.109 C3.927001,4.1976671 4.212832,4.2921662 4.5045,4.3925 C4.796168,4.4928338 5.081999,4.6094993 5.362,4.7425 C5.642001,4.8755007 5.891666,5.043499 6.111,5.2465 C6.330334,5.449501 6.506499,5.6979985 6.6395,5.992 C6.772501,6.2860015 6.839,6.6429979 6.839,7.063 C6.839,7.5203356 6.760834,7.948498 6.6045,8.3475 C6.448166,8.746502 6.219502,9.0941652 5.9185,9.3905 C5.617498,9.6868348 5.250002,9.9201658 4.816,10.0905 C4.381998,10.2608342 3.885003,10.346 3.325,10.346 C3.002998,10.346 2.685668,10.3145003 2.373,10.2515 C2.060332,10.1884997 1.760501,10.0986673 1.4735,9.982 C1.186499,9.8653328 0.918168,9.7253342 0.6685,9.562 C0.418832,9.3986659 0.196001,9.2166677 0,9.016 L0.546,8.113 C0.597334,8.0476663 0.659166,7.9928336 0.7315,7.9485 C0.803834,7.9041664 0.884333,7.882 0.973,7.882 C1.089667,7.882 1.215666,7.9298329 1.351,8.0255 C1.486334,8.1211671 1.646166,8.2273328 1.8305,8.344 C2.014834,8.4606673 2.231832,8.5668329 2.4815,8.6625 C2.731168,8.7581671 3.030998,8.806 3.381,8.806 C3.917669,8.806 4.332999,8.6788346 4.627,8.4245 C4.921001,8.1701654 5.068,7.8050024 5.068,7.329 C5.068,7.0629987 5.001501,6.8460008 4.8685,6.678 C4.735499,6.5099992 4.559334,6.3688339 4.34,6.2545 C4.120666,6.1401661 3.871001,6.0433337 3.591,5.964 C3.310999,5.8846663 3.026335,5.7983338 2.737,5.705 C2.447665,5.6116662 2.163001,5.4996673 1.883,5.369 C1.602999,5.2383327 1.353334,5.0680011 1.134,4.858 C0.914666,4.647999 0.738501,4.3855016 0.6055,4.0705 C0.472499,3.7554984 0.406,3.3670023 0.406,2.905 C0.406,2.5363315 0.479499,2.1770018 0.6265,1.827 C0.773501,1.4769983 0.988165,1.166668 1.2705,0.896 C1.552835,0.625332 1.899331,0.4083342 2.31,0.245 C2.720669,0.0816659 3.189664,0 3.717,0 C4.314336,0 4.864997,0.0933324 5.369,0.28 C5.873003,0.4666676 6.302332,0.7279983 6.657,1.064 L6.195,1.953 Z M19.414,0.112 L19.414,1.659 L16.369,1.659 L16.369,10.234 L14.486,10.234 L14.486,1.659 L11.427,1.659 L11.427,0.112 L19.414,0.112 Z M32.479,10.234 L31.023,10.234 C30.859666,10.234 30.725501,10.1931671 30.6205,10.1115 C30.515499,10.0298329 30.439667,9.9283339 30.393,9.807 L29.637,7.742 L25.444,7.742 L24.688,9.807 C24.650666,9.9143339 24.577167,10.0123329 24.4675,10.101 C24.357833,10.1896671 24.223667,10.234 24.065,10.234 L22.602,10.234 L26.578,0.112 L28.503,0.112 L32.479,10.234 Z M25.927,6.412 L29.154,6.412 L27.922,3.045 C27.866,2.8956659 27.804167,2.719501 27.7365,2.5165 C27.668833,2.313499 27.602334,2.0930012 27.537,1.855 C27.471666,2.0930012 27.4075,2.3146656 27.3445,2.52 C27.2815,2.7253344 27.219667,2.9049992 27.159,3.059 L25.927,6.412 Z M44.123,7.847 C44.225667,7.847 44.314333,7.8866663 44.389,7.966 L45.131,8.771 C44.720331,9.2796692 44.21517,9.669332 43.6155,9.94 C43.01583,10.210668 42.296004,10.346 41.456,10.346 C40.704663,10.346 40.02917,10.217668 39.4295,9.961 C38.82983,9.7043321 38.317669,9.3473356 37.893,8.89 C37.468331,8.4326644 37.142834,7.8866698 36.9165,7.252 C36.690166,6.6173302 36.577,5.9243371 36.577,5.173 C36.577,4.4123295 36.702999,3.7158365 36.955,3.0835 C37.207001,2.4511635 37.561664,1.9063356 38.019,1.449 C38.476336,0.9916644 39.023497,0.6358346 39.6605,0.3815 C40.297503,0.1271654 41.000996,0 41.771,0 C42.522337,0 43.179164,0.1201655 43.7415,0.3605 C44.303836,0.6008345 44.785665,0.9193314 45.187,1.316 L44.557,2.191 C44.519666,2.2470003 44.471834,2.2959998 44.4135,2.338 C44.355166,2.3800002 44.274667,2.401 44.172,2.401 C44.064666,2.401 43.955001,2.3590004 43.843,2.275 C43.730999,2.1909996 43.588668,2.1000005 43.416,2.002 C43.243332,1.9039995 43.025168,1.8130004 42.7615,1.729 C42.497832,1.6449996 42.163002,1.603 41.757,1.603 C41.280998,1.603 40.843502,1.6858325 40.4445,1.8515 C40.045498,2.0171675 39.702501,2.2539985 39.4155,2.562 C39.128499,2.8700015 38.904501,3.2444978 38.7435,3.6855 C38.582499,4.1265022 38.502,4.6223306 38.502,5.173 C38.502,5.7423362 38.582499,6.2486645 38.7435,6.692 C38.904501,7.1353356 39.122665,7.5086652 39.398,7.812 C39.673335,8.1153349 39.997665,8.3474992 40.371,8.5085 C40.744335,8.6695008 41.145665,8.75 41.575,8.75 C41.831668,8.75 42.063832,8.7360001 42.2715,8.708 C42.479168,8.6799999 42.670499,8.635667 42.8455,8.575 C43.020501,8.514333 43.186166,8.4361671 43.3425,8.3405 C43.498834,8.2448329 43.653999,8.1270007 43.808,7.987 C43.854667,7.9449998 43.903666,7.9111668 43.955,7.8855 C44.006334,7.8598332 44.062333,7.847 44.123,7.847 Z M52.498,4.354 L52.939,4.354 C53.116334,4.354 53.263333,4.3295002 53.38,4.2805 C53.496667,4.2314998 53.597,4.1533339 53.681,4.046 L56.474,0.511 C56.590667,0.3616659 56.713166,0.2578336 56.8415,0.1995 C56.969834,0.1411664 57.131999,0.112 57.328,0.112 L58.952,0.112 L55.543,4.319 C55.435666,4.4496673 55.333,4.5593329 55.235,4.648 C55.137,4.7366671 55.032001,4.8089997 54.92,4.865 C55.074001,4.9210003 55.212833,5.0003328 55.3365,5.103 C55.460167,5.2056672 55.580333,5.3363325 55.697,5.495 L59.211,10.234 L57.545,10.234 C57.320999,10.234 57.154167,10.2025003 57.0445,10.1395 C56.934833,10.0764997 56.842667,9.9843339 56.768,9.863 L53.905,6.125 C53.811666,6.0036661 53.706667,5.9161669 53.59,5.8625 C53.473333,5.8088331 53.307668,5.782 53.093,5.782 L52.498,5.782 L52.498,10.234 L50.615,10.234 L50.615,0.105 L52.498,0.105 L52.498,4.354 Z M69.749,1.953 C69.697666,2.0556672 69.638167,2.1279998 69.5705,2.17 C69.502833,2.2120002 69.422334,2.233 69.329,2.233 C69.235666,2.233 69.130667,2.1968337 69.014,2.1245 C68.897333,2.0521663 68.759667,1.9716671 68.601,1.883 C68.442333,1.7943329 68.256834,1.7138337 68.0445,1.6415 C67.832166,1.5691663 67.581335,1.533 67.292,1.533 C67.030665,1.533 66.803168,1.5644997 66.6095,1.6275 C66.415832,1.6905003 66.252501,1.7779994 66.1195,1.89 C65.986499,2.0020006 65.887334,2.1361659 65.822,2.2925 C65.756666,2.4488341 65.724,2.6203324 65.724,2.807 C65.724,3.0450012 65.790499,3.2433325 65.9235,3.402 C66.056501,3.5606675 66.232666,3.6959994 66.452,3.808 C66.671334,3.9200006 66.920999,4.0203329 67.201,4.109 C67.481001,4.1976671 67.766832,4.2921662 68.0585,4.3925 C68.350168,4.4928338 68.635999,4.6094993 68.916,4.7425 C69.196001,4.8755007 69.445666,5.043499 69.665,5.2465 C69.884334,5.449501 70.060499,5.6979985 70.1935,5.992 C70.326501,6.2860015 70.393,6.6429979 70.393,7.063 C70.393,7.5203356 70.314834,7.948498 70.1585,8.3475 C70.002166,8.746502 69.773502,9.0941652 69.4725,9.3905 C69.171498,9.6868348 68.804002,9.9201658 68.37,10.0905 C67.935998,10.2608342 67.439003,10.346 66.879,10.346 C66.556998,10.346 66.239668,10.3145003 65.927,10.2515 C65.614332,10.1884997 65.314501,10.0986673 65.0275,9.982 C64.740499,9.8653328 64.472168,9.7253342 64.2225,9.562 C63.972832,9.3986659 63.750001,9.2166677 63.554,9.016 L64.1,8.113 C64.151334,8.0476663 64.213166,7.9928336 64.2855,7.9485 C64.357834,7.9041664 64.438333,7.882 64.527,7.882 C64.643667,7.882 64.769666,7.9298329 64.905,8.0255 C65.040334,8.1211671 65.200166,8.2273328 65.3845,8.344 C65.568834,8.4606673 65.785832,8.5668329 66.0355,8.6625 C66.285168,8.7581671 66.584998,8.806 66.935,8.806 C67.471669,8.806 67.886999,8.6788346 68.181,8.4245 C68.475001,8.1701654 68.622,7.8050024 68.622,7.329 C68.622,7.0629987 68.555501,6.8460008 68.4225,6.678 C68.289499,6.5099992 68.113334,6.3688339 67.894,6.2545 C67.674666,6.1401661 67.425001,6.0433337 67.145,5.964 C66.864999,5.8846663 66.580335,5.7983338 66.291,5.705 C66.001665,5.6116662 65.717001,5.4996673 65.437,5.369 C65.156999,5.2383327 64.907334,5.0680011 64.688,4.858 C64.468666,4.647999 64.292501,4.3855016 64.1595,4.0705 C64.026499,3.7554984 63.96,3.3670023 63.96,2.905 C63.96,2.5363315 64.033499,2.1770018 64.1805,1.827 C64.327501,1.4769983 64.542165,1.166668 64.8245,0.896 C65.106835,0.625332 65.453331,0.4083342 65.864,0.245 C66.274669,0.0816659 66.743664,0 67.271,0 C67.868336,0 68.418997,0.0933324 68.923,0.28 C69.427003,0.4666676 69.856332,0.7279983 70.211,1.064 L69.749,1.953 Z" id="stacks-logo" fill="#000000" fill-rule="nonzero"></path>
    </g>
</svg>