<?xml version="1.0" encoding="utf-8"?>
<!-- Generator: Adobe Illustrator 22.0.1, SVG Export Plug-In . SVG Version: 6.00 Build 0)  -->
<svg version="1.1" id="Layer_1" xmlns="http://www.w3.org/2000/svg" xmlns:xlink="http://www.w3.org/1999/xlink" x="0px" y="0px"
	 viewBox="0 0 792 612" style="enable-background:new 0 0 792 612;" xml:space="preserve">
<style type="text/css">
	.st0{fill:#FFFFFF;}
	.st1{fill:#FB0063;}
	.st2{fill:none;stroke:#FFFFFF;stroke-width:0.75;stroke-miterlimit:10;}
</style>
<g>
	<g>
		<path class="st0" d="M298.3,311.7v-12.2h1.8c0.8,0,1.5,0.1,2,0.2c0.5,0.1,0.9,0.3,1.2,0.6c0.3,0.3,0.6,0.7,0.8,1.2
			c0.2,0.5,0.3,0.9,0.3,1.4c0,0.9-0.3,1.6-1,2.2c0.6,0.2,1.2,0.6,1.5,1.2c0.4,0.5,0.6,1.2,0.6,1.9c0,1-0.3,1.8-1,2.4
			c-0.4,0.4-0.9,0.7-1.4,0.8c-0.6,0.2-1.2,0.2-2.1,0.2H298.3z M300.1,304.7h0.6c0.7,0,1.2-0.2,1.5-0.5c0.3-0.3,0.5-0.7,0.5-1.3
			c0-0.6-0.2-1-0.5-1.3c-0.3-0.3-0.8-0.4-1.4-0.4h-0.6V304.7z M300.1,310h1.1c0.8,0,1.4-0.2,1.8-0.5c0.4-0.4,0.6-0.8,0.6-1.3
			c0-0.5-0.2-1-0.6-1.3c-0.4-0.4-1.1-0.5-2.1-0.5h-0.9V310z"/>
		<path class="st0" d="M311.3,299.5V310h3.6v1.7h-5.4v-12.2H311.3z"/>
		<path class="st0" d="M317.2,305.5c0-1.7,0.6-3.2,1.9-4.4c1.3-1.2,2.8-1.8,4.5-1.8c1.7,0,3.2,0.6,4.5,1.9c1.2,1.2,1.9,2.7,1.9,4.5
			c0,1.8-0.6,3.2-1.9,4.5c-1.3,1.2-2.8,1.8-4.6,1.8c-1.6,0-3-0.5-4.2-1.6C317.8,309.1,317.2,307.5,317.2,305.5z M319,305.6
			c0,1.3,0.5,2.5,1.4,3.3c0.9,0.9,1.9,1.3,3.1,1.3c1.3,0,2.4-0.4,3.2-1.3c0.9-0.9,1.3-2,1.3-3.3c0-1.3-0.4-2.4-1.3-3.3
			c-0.9-0.9-1.9-1.3-3.2-1.3c-1.3,0-2.3,0.4-3.2,1.3C319.5,303.2,319,304.3,319,305.6z"/>
		<path class="st0" d="M342.9,300.1v2.2c-1.1-0.9-2.2-1.3-3.3-1.3c-1.3,0-2.3,0.5-3.2,1.4c-0.9,0.9-1.3,2-1.3,3.3
			c0,1.3,0.4,2.4,1.3,3.2c0.9,0.9,1.9,1.3,3.2,1.3c0.6,0,1.2-0.1,1.7-0.3c0.3-0.1,0.5-0.2,0.8-0.4c0.3-0.2,0.6-0.4,0.9-0.6v2.2
			c-1.1,0.6-2.2,0.9-3.3,0.9c-1.7,0-3.2-0.6-4.5-1.8c-1.2-1.2-1.8-2.7-1.8-4.4c0-1.6,0.5-2.9,1.5-4.2c1.3-1.5,2.9-2.2,4.9-2.2
			C340.8,299.3,341.8,299.6,342.9,300.1z"/>
		<path class="st0" d="M349,304.4l4.7-4.9h2.5l-5.5,5.5l5.5,6.7h-2.5l-4.4-5.4l-0.4,0.4v5h-1.8v-12.2h1.8V304.4z"/>
		<path class="st0" d="M365.9,301.3l-1.5,0.9c-0.3-0.5-0.5-0.8-0.8-0.9c-0.3-0.2-0.6-0.3-1-0.3c-0.5,0-0.9,0.1-1.3,0.4
			c-0.3,0.3-0.5,0.6-0.5,1.1c0,0.6,0.4,1.1,1.3,1.4l1.2,0.5c1,0.4,1.7,0.9,2.2,1.5c0.5,0.6,0.7,1.3,0.7,2.1c0,1.1-0.4,2-1.1,2.8
			c-0.8,0.7-1.7,1.1-2.8,1.1c-1.1,0-1.9-0.3-2.6-0.9c-0.7-0.6-1.1-1.5-1.3-2.6l1.9-0.4c0.1,0.7,0.2,1.2,0.4,1.5
			c0.4,0.5,0.9,0.8,1.7,0.8c0.6,0,1.1-0.2,1.4-0.6c0.4-0.4,0.6-0.9,0.6-1.5c0-0.2,0-0.5-0.1-0.7s-0.2-0.4-0.3-0.5
			c-0.1-0.2-0.3-0.3-0.5-0.5c-0.2-0.1-0.5-0.3-0.8-0.4l-1.2-0.5c-1.7-0.7-2.5-1.7-2.5-3.1c0-0.9,0.4-1.7,1.1-2.3
			c0.7-0.6,1.6-0.9,2.6-0.9C364,299.3,365.1,299.9,365.9,301.3z"/>
		<path class="st0" d="M373.7,301.2v10.5h-1.8v-10.5H369v-1.7h7.4v1.7H373.7z"/>
		<path class="st0" d="M386.2,308.7H381l-1.4,3h-2l6-13l5.8,13h-2L386.2,308.7z M385.5,307l-1.8-4.1l-1.9,4.1H385.5z"/>
		<path class="st0" d="M401.1,300.1v2.2c-1.1-0.9-2.2-1.3-3.3-1.3c-1.3,0-2.3,0.5-3.2,1.4c-0.9,0.9-1.3,2-1.3,3.3
			c0,1.3,0.4,2.4,1.3,3.2c0.9,0.9,1.9,1.3,3.2,1.3c0.6,0,1.2-0.1,1.7-0.3c0.3-0.1,0.5-0.2,0.8-0.4c0.3-0.2,0.6-0.4,0.9-0.6v2.2
			c-1.1,0.6-2.2,0.9-3.3,0.9c-1.7,0-3.2-0.6-4.5-1.8c-1.2-1.2-1.8-2.7-1.8-4.4c0-1.6,0.5-2.9,1.5-4.2c1.3-1.5,2.9-2.2,4.9-2.2
			C399,299.3,400.1,299.6,401.1,300.1z"/>
		<path class="st0" d="M407.2,304.4l4.7-4.9h2.5l-5.5,5.5l5.5,6.7H412l-4.4-5.4l-0.4,0.4v5h-1.8v-12.2h1.8V304.4z"/>
		<path class="st1" d="M435,307.9c0,2.2-1.6,3.8-4.1,3.8h-5v-2.2h4.9c1,0,1.7-0.7,1.7-1.7c0-1-0.7-1.7-1.8-1.7h-4.7v-2.2h4.5
			c0.8,0,1.4-0.5,1.4-1.2c0-0.7-0.5-1.2-1.2-1.2h-2.1l-2.5,0v-2.2h4.8c2.3,0,3.6,1.5,3.6,3.2c0,1.1-0.7,1.9-1.7,2.3
			C434.2,305.2,435,306.3,435,307.9z"/>
		<path class="st1" d="M441.2,301.6v1.7h5.9v2.2h-0.9h-5v1.7h-2.5v-7.9h8.4v2.2H441.2z M447.1,309.5v2.2h-8.4v-2.2H447.1z"/>
		<path class="st1" d="M459.8,311.7h-2.9l-2.6-4l-0.8-1.3l-2.7-4.2v-2.9h3.4c3.5,0,5.5,1.7,5.5,4.7c0,1.9-0.9,3.1-2.4,3.8
			L459.8,311.7z M457,304c0-1.7-0.9-2.4-3-2.4h-0.8v0.2l2.8,4.2C456.7,305.7,457,305,457,304z"/>
		<path class="st1" d="M471.9,309.4v2.2h-8.4v-12.3h2.5v10.1H471.9z"/>
		<path class="st1" d="M480.6,311.7h-2.5v-10.1h-2.5v-2.2h5.1V311.7z"/>
		<path class="st1" d="M494.4,299.2v12.6h-0.3l-7.4-7.4v7.3h-2.5v-12.5h0.3l7.4,7.4v-7.4H494.4z"/>
	</g>
</g>
<polyline class="st2" points="325.2,330.4 278.2,330.4 278.2,281 515.8,281 515.8,330.8 468.1,330.8 "/>
<g>
	<g>
		<path class="st0" d="M338.7,331.5h-2.6l-0.7,1.5h-1l3-6.5l2.9,6.5h-1L338.7,331.5z M338.3,330.6l-0.9-2.1l-0.9,2.1H338.3z"/>
		<path class="st0" d="M348.7,327.8l-0.7,0.4c-0.1-0.2-0.3-0.4-0.4-0.5c-0.1-0.1-0.3-0.1-0.5-0.1c-0.3,0-0.5,0.1-0.6,0.2
			c-0.2,0.1-0.3,0.3-0.3,0.5c0,0.3,0.2,0.5,0.7,0.7l0.6,0.2c0.5,0.2,0.9,0.4,1.1,0.7c0.2,0.3,0.3,0.6,0.3,1.1c0,0.6-0.2,1-0.6,1.4
			c-0.4,0.4-0.8,0.6-1.4,0.6c-0.5,0-1-0.2-1.3-0.5c-0.3-0.3-0.6-0.8-0.6-1.3l0.9-0.2c0,0.4,0.1,0.6,0.2,0.7c0.2,0.3,0.5,0.4,0.8,0.4
			c0.3,0,0.5-0.1,0.7-0.3c0.2-0.2,0.3-0.4,0.3-0.7c0-0.1,0-0.2,0-0.3c0-0.1-0.1-0.2-0.2-0.3s-0.2-0.2-0.3-0.2
			c-0.1-0.1-0.2-0.1-0.4-0.2l-0.6-0.2c-0.8-0.4-1.3-0.9-1.3-1.5c0-0.5,0.2-0.8,0.5-1.1c0.4-0.3,0.8-0.5,1.3-0.5
			C347.7,326.8,348.3,327.1,348.7,327.8z"/>
		<path class="st0" d="M351.7,326.9v6.1h-0.9v-6.1H351.7z"/>
		<path class="st0" d="M357.1,329.8h2.5v0.2c0,0.5-0.1,0.9-0.2,1.2c-0.1,0.3-0.3,0.6-0.5,0.9c-0.6,0.6-1.3,1-2.2,1
			c-0.9,0-1.6-0.3-2.2-0.9c-0.6-0.6-0.9-1.4-0.9-2.2c0-0.9,0.3-1.6,0.9-2.3c0.6-0.6,1.4-0.9,2.3-0.9c0.5,0,0.9,0.1,1.3,0.3
			c0.4,0.2,0.8,0.5,1.2,0.9l-0.7,0.6c-0.5-0.7-1.1-1-1.8-1c-0.6,0-1.2,0.2-1.6,0.7c-0.4,0.4-0.7,1-0.7,1.6c0,0.7,0.2,1.2,0.7,1.7
			c0.5,0.4,0.9,0.6,1.5,0.6c0.5,0,0.9-0.2,1.2-0.5c0.4-0.3,0.6-0.7,0.6-1.1h-1.5V329.8z"/>
		<path class="st0" d="M361.6,333v-6.5l4.4,4.7v-4.2h0.9v6.5l-4.4-4.6v4.3H361.6z"/>
		<path class="st0" d="M372.9,331.5h-2.6l-0.7,1.5h-1l3-6.5l2.9,6.5h-1L372.9,331.5z M372.5,330.6l-0.9-2.1l-0.9,2.1H372.5z"/>
		<path class="st0" d="M377.4,327.7v5.2h-0.9v-5.2h-1.4v-0.9h3.7v0.9H377.4z"/>
		<path class="st0" d="M381.4,326.9v3.7c0,0.5,0.1,0.9,0.3,1.1c0.3,0.4,0.6,0.5,1.1,0.5c0.5,0,0.8-0.2,1.1-0.5
			c0.2-0.2,0.3-0.6,0.3-1.1v-3.7h0.9v3.9c0,0.6-0.2,1.2-0.6,1.6c-0.5,0.5-1,0.7-1.7,0.7s-1.2-0.2-1.7-0.7c-0.4-0.4-0.6-0.9-0.6-1.6
			v-3.9H381.4z"/>
		<path class="st0" d="M389.3,330.4l1.9,2.6h-1.1l-1.7-2.5h-0.2v2.5h-0.9v-6.1h1.1c0.8,0,1.4,0.2,1.7,0.5c0.4,0.3,0.6,0.8,0.6,1.3
			c0,0.4-0.1,0.8-0.4,1.1C390,330.1,389.7,330.3,389.3,330.4z M388.1,329.7h0.3c0.9,0,1.3-0.3,1.3-1c0-0.6-0.4-0.9-1.3-0.9h-0.3
			V329.7z"/>
		<path class="st0" d="M396.3,327.7h-2.4v1.5h2.4v0.9h-2.4v2h2.4v0.9h-3.4v-6.1h3.4V327.7z"/>
		<path class="st0" d="M404.6,327.7h-2.1v1.5h2.1v0.9h-2.1v2.9h-0.9v-6.1h3V327.7z"/>
		<path class="st0" d="M407.4,326.9v3.7c0,0.5,0.1,0.9,0.3,1.1c0.3,0.4,0.6,0.5,1.1,0.5c0.5,0,0.8-0.2,1.1-0.5
			c0.2-0.2,0.3-0.6,0.3-1.1v-3.7h0.9v3.9c0,0.6-0.2,1.2-0.6,1.6c-0.5,0.5-1,0.7-1.7,0.7s-1.2-0.2-1.7-0.7c-0.4-0.4-0.6-0.9-0.6-1.6
			v-3.9H407.4z"/>
		<path class="st0" d="M413.3,333v-6.5l4.4,4.7v-4.2h0.9v6.5l-4.4-4.6v4.3H413.3z"/>
		<path class="st0" d="M420.9,333v-6.1h1.3c0.6,0,1.1,0.1,1.5,0.2c0.4,0.1,0.7,0.3,1,0.6c0.6,0.6,0.9,1.3,0.9,2.3
			c0,0.9-0.3,1.7-1,2.3c-0.3,0.3-0.7,0.5-1,0.6c-0.3,0.1-0.8,0.2-1.4,0.2H420.9z M421.9,332.1h0.4c0.4,0,0.8,0,1-0.1
			c0.3-0.1,0.5-0.2,0.7-0.4c0.5-0.4,0.7-1,0.7-1.6c0-0.7-0.2-1.2-0.7-1.6c-0.4-0.4-1-0.6-1.8-0.6h-0.4V332.1z"/>
		<path class="st0" d="M434.3,327.7h-2.4v1.5h2.4v0.9h-2.4v2h2.4v0.9h-3.4v-6.1h3.4V327.7z"/>
		<path class="st0" d="M436.6,326.9l1.7,4.2l1.7-4.2h1l-2.7,6.6l-2.7-6.6H436.6z"/>
		<path class="st0" d="M446,327.7h-2.4v1.5h2.4v0.9h-2.4v2h2.4v0.9h-3.4v-6.1h3.4V327.7z"/>
		<path class="st0" d="M448,333v-6.5l4.4,4.7v-4.2h0.9v6.5l-4.4-4.6v4.3H448z"/>
		<path class="st0" d="M457.3,327.7v5.2h-0.9v-5.2H455v-0.9h3.7v0.9H457.3z"/>
	</g>
</g>
</svg>
